<svg width="118" height="23" viewBox="0 0 118 23" fill="none" xmlns="http://www.w3.org/2000/svg">
<path d="M9.528 18.336C7 18.336 4.912 17.496 3.264 15.816C1.616 14.136 0.792 12.064 0.792 9.6C0.792 7.12 1.616 5.048 3.264 3.384C4.912 1.704 7 0.863999 9.528 0.863999C11.048 0.863999 12.448 1.224 13.728 1.944C15.024 2.648 16.032 3.608 16.752 4.824L13.896 6.48C13.48 5.728 12.888 5.144 12.12 4.728C11.352 4.296 10.488 4.08 9.528 4.08C7.896 4.08 6.576 4.592 5.568 5.616C4.576 6.64 4.08 7.968 4.08 9.6C4.08 11.216 4.576 12.536 5.568 13.56C6.576 14.584 7.896 15.096 9.528 15.096C10.488 15.096 11.352 14.888 12.12 14.472C12.904 14.04 13.496 13.456 13.896 12.72L16.752 14.376C16.032 15.592 15.032 16.56 13.752 17.28C12.472 17.984 11.064 18.336 9.528 18.336ZM21.9261 8.064C22.2141 7.296 22.6861 6.72 23.3421 6.336C24.0141 5.952 24.7581 5.76 25.5741 5.76V9.216C24.6301 9.104 23.7821 9.296 23.0301 9.792C22.2941 10.288 21.9261 11.112 21.9261 12.264V18H18.8301V6H21.9261V8.064ZM35.4666 6H38.7786L34.4106 18C33.7866 19.728 32.9546 20.976 31.9146 21.744C30.8906 22.528 29.6106 22.88 28.0746 22.8V19.92C28.9066 19.936 29.5626 19.76 30.0426 19.392C30.5386 19.024 30.9306 18.432 31.2186 17.616L26.2986 6H29.6826L32.8026 14.064L35.4666 6ZM47.2359 5.664C48.8519 5.664 50.2279 6.28 51.3639 7.512C52.5159 8.728 53.0919 10.224 53.0919 12C53.0919 13.776 52.5159 15.28 51.3639 16.512C50.2279 17.728 48.8519 18.336 47.2359 18.336C45.5559 18.336 44.2599 17.752 43.3479 16.584V22.8H40.2519V6H43.3479V7.416C44.2599 6.248 45.5559 5.664 47.2359 5.664ZM44.2839 14.448C44.9079 15.072 45.6999 15.384 46.6599 15.384C47.6199 15.384 48.4119 15.072 49.0359 14.448C49.6759 13.808 49.9959 12.992 49.9959 12C49.9959 11.008 49.6759 10.2 49.0359 9.576C48.4119 8.936 47.6199 8.616 46.6599 8.616C45.6999 8.616 44.9079 8.936 44.2839 9.576C43.6599 10.2 43.3479 11.008 43.3479 12C43.3479 12.992 43.6599 13.808 44.2839 14.448ZM61.8816 8.976H59.1696V13.968C59.1696 14.384 59.2736 14.688 59.4816 14.88C59.6896 15.072 59.9936 15.184 60.3936 15.216C60.7936 15.232 61.2896 15.224 61.8816 15.192V18C59.7536 18.24 58.2496 18.04 57.3696 17.4C56.5056 16.76 56.0736 15.616 56.0736 13.968V8.976H53.9856V6H56.0736V3.576L59.1696 2.64V6H61.8816V8.976ZM73.9134 16.512C72.6814 17.728 71.1774 18.336 69.4014 18.336C67.6254 18.336 66.1214 17.728 64.8894 16.512C63.6734 15.28 63.0654 13.776 63.0654 12C63.0654 10.224 63.6734 8.728 64.8894 7.512C66.1214 6.28 67.6254 5.664 69.4014 5.664C71.1774 5.664 72.6814 6.28 73.9134 7.512C75.1454 8.728 75.7614 10.224 75.7614 12C75.7614 13.776 75.1454 15.28 73.9134 16.512ZM67.0734 14.376C67.6974 15 68.4734 15.312 69.4014 15.312C70.3294 15.312 71.1054 15 71.7294 14.376C72.3534 13.752 72.6654 12.96 72.6654 12C72.6654 11.04 72.3534 10.248 71.7294 9.624C71.1054 9 70.3294 8.688 69.4014 8.688C68.4734 8.688 67.6974 9 67.0734 9.624C66.4654 10.248 66.1614 11.04 66.1614 12C66.1614 12.96 66.4654 13.752 67.0734 14.376Z" fill="#0CB383"/>
<path d="M88.2354 9.288C89.7074 10.136 90.4434 11.416 90.4434 13.128C90.4434 14.552 89.9394 15.72 88.9314 16.632C87.9234 17.544 86.6834 18 85.2114 18H78.0834V1.2H84.7074C86.1474 1.2 87.3554 1.648 88.3314 2.544C89.3234 3.424 89.8194 4.552 89.8194 5.928C89.8194 7.32 89.2914 8.44 88.2354 9.288ZM84.7074 4.296H81.3954V7.992H84.7074C85.2194 7.992 85.6434 7.816 85.9794 7.464C86.3314 7.112 86.5074 6.672 86.5074 6.144C86.5074 5.616 86.3394 5.176 86.0034 4.824C85.6674 4.472 85.2354 4.296 84.7074 4.296ZM85.2114 14.904C85.7714 14.904 86.2354 14.72 86.6034 14.352C86.9714 13.968 87.1554 13.488 87.1554 12.912C87.1554 12.352 86.9714 11.888 86.6034 11.52C86.2354 11.136 85.7714 10.944 85.2114 10.944H81.3954V14.904H85.2114ZM100.649 6H103.745V18H100.649V16.656C99.8965 17.776 98.7045 18.336 97.0725 18.336C95.7605 18.336 94.6725 17.896 93.8085 17.016C92.9605 16.136 92.5365 14.92 92.5365 13.368V6H95.6325V12.984C95.6325 13.784 95.8485 14.4 96.2805 14.832C96.7125 15.248 97.2885 15.456 98.0085 15.456C98.8085 15.456 99.4485 15.208 99.9285 14.712C100.409 14.216 100.649 13.472 100.649 12.48V6ZM114.404 6H117.716L113.348 18C112.724 19.728 111.892 20.976 110.852 21.744C109.828 22.528 108.548 22.88 107.012 22.8V19.92C107.844 19.936 108.5 19.76 108.98 19.392C109.476 19.024 109.868 18.432 110.156 17.616L105.236 6H108.62L111.74 14.064L114.404 6Z" fill="#FC4F4E"/>
</svg>
